<svg id="Layer_1" xmlns="http://www.w3.org/2000/svg" xmlns:xlink="http://www.w3.org/1999/xlink" width="400" height="285" viewBox="0 0 400 285" enable-background="new 0 0 400 285"><g opacity=".3"><path fill="none" stroke="#626262" stroke-width="2" stroke-miterlimit="10" d="M398 281v3h-2"/><path fill="none" stroke="#626262" stroke-width="2" stroke-miterlimit="10" stroke-dasharray="5,2" d="M394 284H5z"/><path fill="none" stroke="#626262" stroke-width="2" stroke-miterlimit="10" d="M4 284H1v-3"/><path fill="none" stroke="#626262" stroke-width="2" stroke-miterlimit="10" stroke-dasharray="5,2" d="M1 279V4z"/><path fill="none" stroke="#626262" stroke-width="2" stroke-miterlimit="10" d="M1 3V1H4"/><path fill="none" stroke="#626262" stroke-width="2" stroke-miterlimit="10" stroke-dasharray="5,2" d="M6 1H395z"/><path fill="none" stroke="#626262" stroke-width="2" stroke-miterlimit="10" d="M396 1h2V3"/><path fill="none" stroke="#626262" stroke-width="2" stroke-miterlimit="10" stroke-dasharray="5,2" d="M398 5V280z"/></g><path fill="#00cfbc" d="M274.5 150.443c0 1.412-1.145 2.557-2.555 2.557h-41.891c-1.412.0-2.556-1.145-2.556-2.557v-17.889c0-1.412 1.144-2.556 2.556-2.556h41.891c1.41.0 2.555 1.144 2.555 2.556V150.443z"/><path fill="#f0f0f0" d="M221.5 150.443c0 1.412-1.145 2.557-2.555 2.557h-89.89c-1.411.0-2.555-1.145-2.555-2.557v-17.889c0-1.412 1.144-2.556 2.555-2.556h89.89c1.412.0 2.556 1.144 2.556 2.556L221.5 150.443v0z"/></svg>